<svg xmlns="http://www.w3.org/2000/svg" width="126" height="42" viewBox="0 0 126 42" fill="none"><path d="M26.0829 20.37C26.0829 17.43 28.5039 16.065 28.6092 15.96C27.2408 13.965 25.1355 13.755 24.3987 13.65C22.6092 13.44 20.925 14.7 19.9777 14.7C19.0303 14.7 17.6619 13.65 16.1881 13.65C14.2934 13.65 12.5039 14.805 11.4513 16.485C9.45131 19.95 10.925 25.2 12.925 28.035C13.8723 29.4 15.0302 30.975 16.5039 30.975C17.9777 30.87 18.504 30.03 20.2934 30.03C22.0829 30.03 22.504 30.975 24.0829 30.975C25.6618 30.975 26.6092 29.61 27.5566 28.14C28.7144 26.565 29.1355 24.99 29.1355 24.885C29.1355 24.99 26.0829 23.835 26.0829 20.37Z" fill="white"></path><path d="M23.1355 11.865C23.8724 10.92 24.5039 9.55495 24.2934 8.18994C23.1355 8.18994 21.7671 8.92495 20.925 9.97495C20.1882 10.8149 19.5566 12.1799 19.7671 13.5449C21.0303 13.5449 22.3987 12.81 23.1355 11.865Z" fill="white"></path><path d="M44.5039 27.5101H39.5566L38.3987 31.0801H36.2935L41.0303 18.0601H43.1355L47.8724 31.0801H45.7672L44.5039 27.5101ZM40.0829 25.9351H44.0829L42.0829 20.1601H41.9776L40.0829 25.9351Z" fill="white"></path><path d="M58.0828 26.355C58.0828 29.295 56.5039 31.185 54.0828 31.185C52.7144 31.185 51.6618 30.555 51.1355 29.505V34.23H49.1355V21.63H51.0302V23.205C51.5565 22.155 52.7144 21.525 54.0828 21.525C56.3986 21.42 58.0828 23.415 58.0828 26.355ZM55.9776 26.355C55.9776 24.465 55.0302 23.205 53.4513 23.205C51.9776 23.205 50.925 24.465 50.925 26.355C50.925 28.245 51.9776 29.505 53.4513 29.505C55.0302 29.505 55.9776 28.245 55.9776 26.355Z" fill="white"></path><path d="M68.504 26.355C68.504 29.295 66.925 31.185 64.504 31.185C63.1356 31.185 62.0829 30.555 61.5566 29.505V34.23H59.5566V21.63H61.4514V23.205C61.9777 22.155 63.1356 21.525 64.504 21.525C66.925 21.42 68.504 23.415 68.504 26.355ZM66.504 26.355C66.504 24.465 65.5566 23.205 63.9777 23.205C62.504 23.205 61.4514 24.465 61.4514 26.355C61.4514 28.245 62.504 29.505 63.9777 29.505C65.5566 29.505 66.504 28.245 66.504 26.355Z" fill="white"></path><path d="M75.4513 27.405C75.5566 28.665 76.8197 29.505 78.6092 29.505C80.2934 29.505 81.4513 28.665 81.4513 27.51C81.4513 26.46 80.7145 25.935 79.0303 25.515L77.3461 25.095C74.925 24.465 73.8724 23.415 73.8724 21.63C73.8724 19.425 75.8724 17.85 78.6092 17.85C81.346 17.85 83.2408 19.425 83.346 21.63H81.346C81.2408 20.37 80.1881 19.53 78.6092 19.53C77.0303 19.53 75.9776 20.37 75.9776 21.525C75.9776 22.47 76.7145 22.995 78.3987 23.415L79.8724 23.73C82.5039 24.36 83.6618 25.41 83.6618 27.3C83.6618 29.715 81.6618 31.29 78.6092 31.29C75.6619 31.29 73.7671 29.82 73.6619 27.405H75.4513Z" fill="white"></path><path d="M87.6619 19.3199V21.5249H89.4513V23.0999H87.6619V28.3499C87.6619 29.1899 87.9778 29.5049 88.8195 29.5049C89.0304 29.5049 89.3463 29.5049 89.4513 29.5049V31.0799C89.2404 31.1849 88.8195 31.1849 88.3987 31.1849C86.5039 31.1849 85.7671 30.4499 85.7671 28.6649V23.2049H84.3987V21.6299H85.7671V19.4249H87.6619V19.3199Z" fill="white"></path><path d="M90.6089 26.355C90.6089 23.415 92.3983 21.525 95.1353 21.525C97.8723 21.525 99.6616 23.415 99.6616 26.355C99.6616 29.4 97.8723 31.185 95.1353 31.185C92.2933 31.185 90.6089 29.295 90.6089 26.355ZM97.6623 26.355C97.6623 24.255 96.7146 23.1 95.1353 23.1C93.5568 23.1 92.6091 24.255 92.6091 26.355C92.6091 28.455 93.5568 29.61 95.1353 29.61C96.7146 29.61 97.6623 28.35 97.6623 26.355Z" fill="white"></path><path d="M101.241 21.525H103.135V23.205C103.451 22.155 104.293 21.525 105.451 21.525C105.767 21.525 105.977 21.525 106.083 21.63V23.415C105.977 23.31 105.556 23.31 105.241 23.31C103.978 23.31 103.24 24.15 103.24 25.515V31.185H101.241V21.525Z" fill="white"></path><path d="M115.135 28.245C114.925 29.925 113.136 31.185 111.031 31.185C108.294 31.185 106.504 29.295 106.504 26.355C106.504 23.415 108.189 21.42 110.925 21.42C113.557 21.42 115.241 23.205 115.241 26.145V26.775H108.504V26.88C108.504 28.455 109.557 29.61 111.031 29.61C112.083 29.61 112.925 29.085 113.241 28.245H115.135ZM108.504 25.41H113.241C113.241 23.94 112.293 22.995 110.925 22.995C109.557 22.995 108.609 24.045 108.504 25.41Z" fill="white"></path><path d="M39.7671 8.18994C41.6618 8.18994 42.7144 9.34495 42.7144 11.34C42.7144 13.335 41.6618 14.4899 39.7671 14.4899H37.4513V8.18994H39.7671ZM38.5039 13.65H39.6618C40.925 13.65 41.7671 12.8099 41.7671 11.4449C41.7671 10.08 41.0302 9.23995 39.6618 9.23995H38.5039V13.65Z" fill="white"></path><path d="M43.8723 12.075C43.8723 10.5 44.7144 9.66003 46.0829 9.66003C47.4513 9.66003 48.2934 10.605 48.2934 12.075C48.2934 13.65 47.4513 14.49 46.0829 14.49C44.7144 14.595 43.8723 13.65 43.8723 12.075ZM47.3461 12.075C47.3461 11.025 46.925 10.5 46.0829 10.5C45.2408 10.5 44.8197 11.13 44.8197 12.075C44.8197 13.125 45.2408 13.755 46.0829 13.755C46.925 13.755 47.3461 13.125 47.3461 12.075Z" fill="white"></path><path d="M54.2934 14.49H53.346L52.3986 11.025H52.2934L51.346 14.49H50.3986L49.1355 9.76501H50.0829L50.925 13.335H51.0302L51.9776 9.76501H52.9249L53.8723 13.335H53.9776L54.8197 9.76501H55.767L54.2934 14.49Z" fill="white"></path><path d="M56.7145 9.76503H57.6618V10.5H57.7671C57.9776 9.97503 58.5039 9.66003 59.1356 9.66003C60.1882 9.66003 60.8198 10.29 60.8198 11.445V14.49H59.8724V11.655C59.8724 10.92 59.5567 10.5 58.8198 10.5C58.0829 10.5 57.6618 10.92 57.6618 11.655V14.385H56.7145V9.76503Z" fill="white"></path><path d="M62.1882 7.875H63.1356V14.49H62.1882V7.875Z" fill="white"></path><path d="M64.3987 12.075C64.3987 10.5 65.2408 9.66003 66.6092 9.66003C67.9776 9.66003 68.8197 10.605 68.8197 12.075C68.8197 13.65 67.9776 14.49 66.6092 14.49C65.2408 14.595 64.3987 13.65 64.3987 12.075ZM67.9776 12.075C67.9776 11.025 67.5566 10.5 66.7145 10.5C65.8724 10.5 65.4513 11.13 65.4513 12.075C65.4513 13.125 65.8724 13.755 66.7145 13.755C67.4513 13.755 67.9776 13.125 67.9776 12.075Z" fill="white"></path><path d="M69.8723 13.125C69.8723 12.285 70.5039 11.76 71.6618 11.76L72.925 11.655V11.235C72.925 10.71 72.6092 10.5 71.9776 10.5C71.4513 10.5 71.1355 10.71 71.0302 11.025H70.0828C70.1881 10.185 70.9249 9.66003 71.9776 9.66003C73.1355 9.66003 73.8724 10.29 73.8724 11.235V14.49H72.925V13.86H72.8197C72.5039 14.385 71.9776 14.595 71.346 14.595C70.5039 14.595 69.8723 13.965 69.8723 13.125ZM72.925 12.705V12.285L71.767 12.39C71.1355 12.39 70.8197 12.705 70.8197 13.02C70.8197 13.44 71.2407 13.65 71.6618 13.65C72.3986 13.755 72.925 13.335 72.925 12.705Z" fill="white"></path><path d="M75.0303 12.075C75.0303 10.605 75.7671 9.66 77.0303 9.66C77.6618 9.66 78.1882 9.975 78.5039 10.5H78.6092V7.875H79.5566V14.49H78.6092V13.755H78.5039C78.1882 14.28 77.6618 14.595 77.0303 14.595C75.8724 14.595 75.0303 13.65 75.0303 12.075ZM76.0829 12.075C76.0829 13.125 76.6092 13.65 77.346 13.65C78.0829 13.65 78.6092 13.02 78.6092 12.075C78.6092 11.13 78.0829 10.5 77.346 10.5C76.5039 10.5 76.0829 11.13 76.0829 12.075Z" fill="white"></path><path d="M83.3461 12.075C83.3461 10.5 84.1882 9.66003 85.5566 9.66003C86.9251 9.66003 87.7669 10.605 87.7669 12.075C87.7669 13.65 86.9251 14.49 85.5566 14.49C84.1882 14.595 83.3461 13.65 83.3461 12.075ZM86.9251 12.075C86.9251 11.025 86.504 10.5 85.6618 10.5C84.8197 10.5 84.3987 11.13 84.3987 12.075C84.3987 13.125 84.8197 13.755 85.6618 13.755C86.3988 13.755 86.9251 13.125 86.9251 12.075Z" fill="white"></path><path d="M89.1354 9.76503H90.083V10.5H90.188C90.3989 9.97503 90.9247 9.66003 91.5565 9.66003C92.6091 9.66003 93.2409 10.29 93.2409 11.445V14.49H92.2932V11.655C92.2932 10.92 91.9774 10.5 91.2406 10.5C90.5039 10.5 90.083 10.92 90.083 11.655V14.385H89.1354V9.76503Z" fill="white"></path><path d="M98.399 8.60999V9.76496H99.4516V10.605H98.399V13.02C98.399 13.545 98.609 13.755 99.0299 13.755C99.1357 13.755 99.2407 13.755 99.3457 13.755V14.49C99.2407 14.49 99.0299 14.49 98.8199 14.49C97.7672 14.49 97.3464 14.175 97.3464 13.23V10.605H96.6096V9.86996H97.3464V8.60999H98.399Z" fill="white"></path><path d="M100.714 7.875H101.662V10.5H101.767C101.978 9.975 102.504 9.66 103.24 9.66C104.293 9.66 104.925 10.29 104.925 11.445V14.49H103.978V11.655C103.978 10.92 103.662 10.5 102.925 10.5C102.188 10.5 101.767 11.025 101.767 11.655V14.385H100.82V7.875H100.714Z" fill="white"></path><path d="M110.294 13.23C110.083 14.07 109.346 14.595 108.189 14.595C106.82 14.595 105.977 13.65 105.977 12.18C105.977 10.71 106.82 9.66003 108.189 9.66003C109.557 9.66003 110.294 10.605 110.294 12.075V12.39H106.925C106.925 13.23 107.451 13.755 108.189 13.755C108.714 13.755 109.135 13.545 109.346 13.23H110.294ZM106.925 11.655H109.346C109.346 10.92 108.819 10.395 108.189 10.395C107.451 10.5 107.03 10.92 106.925 11.655Z" fill="white"></path></svg>