<svg xmlns="http://www.w3.org/2000/svg" width="144" height="42" viewBox="0 0 144 42" fill="none"><path d="M50.27 10.465C50.27 11.305 50.06 12.04 49.535 12.565C48.905 13.195 48.17 13.51 47.225 13.51C46.28 13.51 45.545 13.195 44.915 12.565C44.285 11.935 43.97 11.2 43.97 10.255C43.97 9.31 44.285 8.575 44.915 7.945C45.545 7.315 46.28 7 47.225 7C47.645 7 48.065 7.105 48.485 7.315C48.905 7.525 49.22 7.735 49.43 8.05L48.905 8.575C48.485 8.05 47.96 7.84 47.225 7.84C46.595 7.84 45.965 8.05 45.545 8.575C45.02 8.995 44.81 9.625 44.81 10.36C44.81 11.095 45.02 11.725 45.545 12.145C46.07 12.565 46.595 12.88 47.225 12.88C47.96 12.88 48.485 12.67 49.01 12.145C49.325 11.83 49.535 11.41 49.535 10.885H47.225V10.045H50.27C50.27 10.15 50.27 10.36 50.27 10.465Z" fill="white" stroke="white" stroke-width="0.2" stroke-miterlimit="10"></path><path d="M55.1 7.83998H52.265V9.83498H54.89V10.57H52.265V12.565H55.1V13.405H51.425V7.10498H55.1V7.83998Z" fill="white" stroke="white" stroke-width="0.2" stroke-miterlimit="10"></path><path d="M58.5649 13.405H57.7249V7.83998H55.9399V7.10498H60.3499V7.83998H58.5649V13.405Z" fill="white" stroke="white" stroke-width="0.2" stroke-miterlimit="10"></path><path d="M63.395 13.405V7.10498H64.235V13.405H63.395Z" fill="white" stroke="white" stroke-width="0.2" stroke-miterlimit="10"></path><path d="M67.8051 13.405H66.965V7.83998H65.1801V7.10498H69.4851V7.83998H67.7001V13.405H67.8051Z" fill="white" stroke="white" stroke-width="0.2" stroke-miterlimit="10"></path><path d="M77.78 12.565C77.15 13.195 76.415 13.51 75.47 13.51C74.525 13.51 73.79 13.195 73.16 12.565C72.53 11.935 72.215 11.2 72.215 10.255C72.215 9.31 72.53 8.575 73.16 7.945C73.79 7.315 74.525 7 75.47 7C76.415 7 77.15 7.315 77.78 7.945C78.41 8.575 78.725 9.31 78.725 10.255C78.725 11.2 78.41 11.935 77.78 12.565ZM73.79 12.04C74.21 12.46 74.84 12.775 75.47 12.775C76.1 12.775 76.73 12.565 77.15 12.04C77.57 11.62 77.885 10.99 77.885 10.255C77.885 9.52 77.675 8.89 77.15 8.47C76.73 8.05 76.1 7.735 75.47 7.735C74.84 7.735 74.21 7.945 73.79 8.47C73.37 8.89 73.055 9.52 73.055 10.255C73.055 10.99 73.265 11.62 73.79 12.04Z" fill="white" stroke="white" stroke-width="0.2" stroke-miterlimit="10"></path><path d="M79.88 13.405V7.10498H80.825L83.87 12.04V10.78V7.10498H84.71V13.405H83.87L80.615 8.25998V9.51998V13.405H79.88Z" fill="white" stroke="white" stroke-width="0.2" stroke-miterlimit="10"></path><path d="M72.005 22.645C69.485 22.645 67.49 24.535 67.49 27.16C67.49 29.68 69.485 31.675 72.005 31.675C74.525 31.675 76.52 29.785 76.52 27.16C76.52 24.43 74.525 22.645 72.005 22.645ZM72.005 29.785C70.64 29.785 69.485 28.63 69.485 27.055C69.485 25.48 70.64 24.325 72.005 24.325C73.37 24.325 74.525 25.375 74.525 27.055C74.525 28.63 73.37 29.785 72.005 29.785ZM62.24 22.645C59.72 22.645 57.725 24.535 57.725 27.16C57.725 29.68 59.72 31.675 62.24 31.675C64.76 31.675 66.755 29.785 66.755 27.16C66.755 24.43 64.76 22.645 62.24 22.645ZM62.24 29.785C60.875 29.785 59.72 28.63 59.72 27.055C59.72 25.48 60.875 24.325 62.24 24.325C63.605 24.325 64.76 25.375 64.76 27.055C64.76 28.63 63.605 29.785 62.24 29.785ZM50.585 24.01V25.9H55.1C54.995 26.95 54.575 27.79 54.05 28.315C53.42 28.945 52.37 29.68 50.585 29.68C47.75 29.68 45.65 27.475 45.65 24.64C45.65 21.805 47.855 19.6 50.585 19.6C52.055 19.6 53.21 20.23 54.05 20.965L55.415 19.6C54.26 18.55 52.79 17.71 50.69 17.71C46.91 17.71 43.655 20.86 43.655 24.64C43.655 28.42 46.91 31.57 50.69 31.57C52.79 31.57 54.26 30.94 55.52 29.575C56.78 28.315 57.2 26.53 57.2 25.165C57.2 24.745 57.2 24.325 57.095 24.01H50.585ZM98.255 25.48C97.835 24.43 96.785 22.645 94.475 22.645C92.165 22.645 90.275 24.43 90.275 27.16C90.275 29.68 92.165 31.675 94.685 31.675C96.68 31.675 97.94 30.415 98.36 29.68L96.89 28.63C96.365 29.365 95.735 29.89 94.685 29.89C93.635 29.89 93.005 29.47 92.48 28.525L98.465 26.005L98.255 25.48ZM92.165 26.95C92.165 25.27 93.53 24.325 94.475 24.325C95.21 24.325 95.945 24.745 96.155 25.27L92.165 26.95ZM87.23 31.255H89.225V18.13H87.23V31.255ZM84.08 23.59C83.555 23.065 82.715 22.54 81.665 22.54C79.46 22.54 77.36 24.535 77.36 27.055C77.36 29.575 79.355 31.465 81.665 31.465C82.715 31.465 83.555 30.94 83.975 30.415H84.08V31.045C84.08 32.725 83.135 33.67 81.665 33.67C80.51 33.67 79.67 32.83 79.46 32.095L77.78 32.83C78.305 33.985 79.565 35.455 81.77 35.455C84.08 35.455 85.97 34.09 85.97 30.835V22.855H84.08V23.59ZM81.77 29.785C80.405 29.785 79.25 28.63 79.25 27.055C79.25 25.48 80.405 24.325 81.77 24.325C83.135 24.325 84.185 25.48 84.185 27.055C84.185 28.63 83.135 29.785 81.77 29.785ZM107.39 18.13H102.665V31.255H104.66V26.32H107.39C109.595 26.32 111.695 24.745 111.695 22.225C111.695 19.705 109.595 18.13 107.39 18.13ZM107.495 24.43H104.66V19.915H107.495C108.965 19.915 109.805 21.175 109.805 22.12C109.7 23.275 108.86 24.43 107.495 24.43ZM119.57 22.54C118.1 22.54 116.63 23.17 116.105 24.535L117.89 25.27C118.31 24.535 118.94 24.325 119.675 24.325C120.725 24.325 121.67 24.955 121.775 26.005V26.11C121.46 25.9 120.62 25.585 119.78 25.585C117.89 25.585 116 26.635 116 28.525C116 30.31 117.575 31.465 119.255 31.465C120.62 31.465 121.25 30.835 121.775 30.205H121.88V31.255H123.77V26.215C123.56 23.905 121.775 22.54 119.57 22.54ZM119.36 29.785C118.73 29.785 117.785 29.47 117.785 28.63C117.785 27.58 118.94 27.265 119.885 27.265C120.725 27.265 121.145 27.475 121.67 27.685C121.46 28.945 120.41 29.785 119.36 29.785ZM130.385 22.855L128.18 28.525H128.075L125.765 22.855H123.665L127.13 30.835L125.135 35.245H127.13L132.485 22.855H130.385ZM112.745 31.255H114.74V18.13H112.745V31.255Z" fill="white"></path><path d="M11.42 7.62988C11.105 7.94488 11 8.46988 11 9.09988V32.3048C11 32.9348 11.21 33.4598 11.525 33.7748L11.63 33.8798L24.65 20.8598V20.7548V20.6498L11.42 7.62988Z" fill="url(#paint0_linear_137_3)"></path><path d="M28.85 25.27L24.545 20.965V20.755V20.65L28.85 16.345L28.955 16.45L34.1 19.39C35.57 20.23 35.57 21.595 34.1 22.435L28.85 25.27Z" fill="url(#paint1_linear_137_3)"></path><path d="M28.955 25.1649L24.545 20.7549L11.42 33.8799C11.945 34.4049 12.68 34.4049 13.625 33.9849L28.955 25.1649Z" fill="url(#paint2_linear_137_3)"></path><path d="M28.955 16.345L13.625 7.62995C12.68 7.10495 11.945 7.20995 11.42 7.73495L24.545 20.755L28.955 16.345Z" fill="url(#paint3_linear_137_3)"></path><path opacity="0.2" d="M28.85 25.0601L13.625 33.6701C12.785 34.1951 12.05 34.0901 11.525 33.6701L11.42 33.7751L11.525 33.8801C12.05 34.3001 12.785 34.4051 13.625 33.8801L28.85 25.0601Z" fill="black"></path><path opacity="0.12" d="M11.42 33.6699C11.105 33.3549 11 32.83 11 32.2V32.305C11 32.935 11.21 33.46 11.525 33.775V33.6699H11.42Z" fill="black"></path><path opacity="0.12" d="M34.1 22.1199L28.85 25.0599L28.955 25.1649L34.1 22.2249C34.835 21.8049 35.15 21.2799 35.15 20.7549C35.15 21.2799 34.73 21.6999 34.1 22.1199Z" fill="black"></path><path opacity="0.25" d="M13.625 7.73497L34.1 19.39C34.73 19.81 35.15 20.23 35.15 20.755C35.15 20.23 34.835 19.705 34.1 19.285L13.625 7.62997C12.155 6.78997 11 7.41997 11 9.09997V9.20497C11 7.62997 12.155 6.89497 13.625 7.73497Z" fill="white"></path><defs><linearGradient id="paint0_linear_137_3" x1="23.3896" y1="8.90017" x2="5.76806" y2="26.5217" gradientUnits="userSpaceOnUse"><stop stop-color="#00A0FF"></stop><stop offset="0.00657445" stop-color="#00A1FF"></stop><stop offset="0.2601" stop-color="#00BEFF"></stop><stop offset="0.5122" stop-color="#00D2FF"></stop><stop offset="0.7604" stop-color="#00DFFF"></stop><stop offset="1" stop-color="#00E3FF"></stop></linearGradient><linearGradient id="paint1_linear_137_3" x1="36.026" y1="20.7565" x2="10.6193" y2="20.7565" gradientUnits="userSpaceOnUse"><stop stop-color="#FFE000"></stop><stop offset="0.4087" stop-color="#FFBD00"></stop><stop offset="0.7754" stop-color="#FFA500"></stop><stop offset="1" stop-color="#FF9C00"></stop></linearGradient><linearGradient id="paint2_linear_137_3" x1="26.5682" y1="23.166" x2="2.67207" y2="47.0622" gradientUnits="userSpaceOnUse"><stop stop-color="#FF3A44"></stop><stop offset="1" stop-color="#C31162"></stop></linearGradient><linearGradient id="paint3_linear_137_3" x1="8.1621" y1="-0.0599319" x2="18.8328" y2="10.6107" gradientUnits="userSpaceOnUse"><stop stop-color="#32A071"></stop><stop offset="0.0685" stop-color="#2DA771"></stop><stop offset="0.4762" stop-color="#15CF74"></stop><stop offset="0.8009" stop-color="#06E775"></stop><stop offset="1" stop-color="#00F076"></stop></linearGradient></defs></svg>